<?xml version="1.0" encoding="UTF-8"?>
<svg id="Layer_2" data-name="Layer 2" xmlns="http://www.w3.org/2000/svg" viewBox="0 0 349.94 455.99">
  <defs>
    <style>
      .cls-1 {
        fill: #242054;
      }
    </style>
  </defs>
  <g id="Page-01">
    <g>
      <path class="cls-1" d="M15.41,84.21c.06,16.45,5.36,31.04,15.76,43.76,3.55,4.34,7.59,8.23,12.17,11.52,1.22.87,1.3.85,1.9-.48,5.47-12.16,10.94-24.32,16.41-36.49,4.84-10.79,9.66-21.58,14.5-32.37,5.28-11.76,10.58-23.51,15.86-35.27,4.39-9.77,8.76-19.55,13.12-29.34,1.21-2.72,1.15-2.68,3.98-1.77,7.83,2.53,15.2,6,22.02,10.64,11.34,7.72,20.33,17.57,26.89,29.63,4.99,9.17,8.19,18.93,9.46,29.27,1.99,16.18-.32,31.72-7.28,46.53-4.33,9.19-10.07,17.38-17.36,24.43-13.54,13.09-29.67,20.91-48.39,23.3-9.07,1.16-18.09.8-27.05-1.01-1.69-.34-1.76-.42-.94-2.12,3.37-7.01,6.47-14.15,9.67-21.23,4.6-10.17,9.16-20.35,13.73-30.53,5.35-11.92,10.69-23.85,16.01-35.79.41-.92.94-1.05,1.78-.67,3.85,1.74,7.7,3.47,11.55,5.19.85.38.91.9.55,1.71-3.43,7.57-6.82,15.16-10.23,22.74-5.25,11.67-10.52,23.34-15.76,35.01-1.6,3.57-3.14,7.16-4.73,10.74-.32.71-.46,1.15.65,1.05,13.41-1.19,25.54-5.76,36.17-14.02,13.31-10.34,21.96-23.76,25.39-40.31,3.54-17.05,1.04-33.27-7.6-48.41-6.59-11.55-15.88-20.43-27.66-26.65-1.63-.86-1.67-.85-2.43.84-5.09,11.35-10.17,22.72-15.26,34.07-5.33,11.88-10.66,23.76-16,35.64-8.74,19.46-17.48,38.93-26.23,58.39-1.24,2.76-2.52,5.5-3.71,8.27-.43.99-.89,1.24-1.92.77-13.64-6.1-25.02-15.02-33.94-27.03C7.27,121.8,2.03,107.81.44,92.43c-1.48-14.28.77-27.98,6.25-41.21,3.75-9.06,9.03-17.11,15.7-24.27C34.38,14.08,48.97,5.76,66.14,1.95,74.98-.01,83.91-.46,92.9.46c1.55.16,1.67.43,1.03,1.85-4.86,10.83-9.7,21.66-14.57,32.48-4.55,10.14-9.12,20.27-13.68,30.4-3.76,8.35-7.55,16.69-11.26,25.05-.53,1.2-1.09,1.35-2.23.82-3.67-1.71-7.37-3.35-11.08-4.95-.98-.42-1.11-.91-.69-1.84,3.3-7.29,6.56-14.6,9.84-21.89,6.53-14.51,13.07-29.02,19.58-43.54.26-.58.93-1.3.49-1.8-.42-.49-1.25.01-1.88.17-14.25,3.44-26.32,10.53-36,21.59-9.73,11.12-15.3,24.05-16.78,38.75-.22,2.22-.2,4.44-.27,6.67Z"/>
      <g>
        <g>
          <path class="cls-1" d="M4.86,262.81v-69.44h16.19c9.27,0,16.48,2.49,21.63,7.47,6.78,6.51,10.16,15.61,10.16,27.3s-2.86,20.4-8.59,26.67c-4.89,5.34-12.17,8.01-21.86,8.01H4.86ZM23.61,246.04c6.72-.33,10.07-6.12,10.07-17.36,0-5.55-.85-9.92-2.56-13.13-1.71-3.24-4.02-4.86-6.93-4.86h-.58v35.35Z"/>
          <path class="cls-1" d="M103.59,262.81h-19.38l-1.39-8.82h-12.64l-1.53,8.82h-19.38l16.69-69.44h22.94l14.71,69.44ZM80.61,239.11l-1.21-8.1s-.09-.43-.18-1.21c-.06-.66-.38-3.27-.94-7.83-.06-.51-.13-1.21-.22-2.09-.09-.88-.21-2-.36-3.35l-.58-6.57c-.06.63-.14,1.33-.25,2.11-.11.78-.22,1.63-.34,2.56-.21,1.86-.36,3.15-.45,3.87s-.15,1.15-.18,1.3l-1.3,8.41-1.89,10.88h7.92Z"/>
          <path class="cls-1" d="M128.16,262.81h-19.11l-15.92-69.44h19.7l3.42,19.83c1.29,7.59,2.32,16.07,3.1,25.46.33-4.17.73-8.07,1.21-11.69.48-3.63,1.05-7.17,1.71-10.61l4.45-22.98h20.37l-18.93,69.44Z"/>
          <path class="cls-1" d="M167.02,262.81h-18.75v-69.44h18.75v69.44Z"/>
          <path class="cls-1" d="M171.21,262.81v-69.44h16.19c9.27,0,16.48,2.49,21.63,7.47,6.78,6.51,10.16,15.61,10.16,27.3s-2.86,20.4-8.59,26.67c-4.89,5.34-12.17,8.01-21.86,8.01h-17.54ZM189.96,246.04c6.72-.33,10.07-6.12,10.07-17.36,0-5.55-.85-9.92-2.56-13.13-1.71-3.24-4.02-4.86-6.93-4.86h-.58v35.35Z"/>
          <path class="cls-1" d="M4.86,338.49v-69.44h16.19c9.27,0,16.48,2.49,21.63,7.47,6.78,6.51,10.16,15.61,10.16,27.3s-2.86,20.4-8.59,26.67c-4.89,5.34-12.17,8.01-21.86,8.01H4.86ZM23.61,321.71c6.72-.33,10.07-6.12,10.07-17.36,0-5.55-.85-9.92-2.56-13.13-1.71-3.24-4.02-4.86-6.93-4.86h-.58v35.35Z"/>
          <path class="cls-1" d="M74.08,338.49h-18.75v-69.44h18.75v69.44Z"/>
          <path class="cls-1" d="M102.42,298.32h26.18v2.88c0,13.37-1.99,23-5.98,28.87-4.35,6.42-10.78,9.62-19.29,9.62s-14.93-3.15-19.7-9.44c-4.74-6.36-7.11-15.08-7.11-26.18s2.38-20.1,7.15-26.58,11.29-9.71,19.56-9.71c10.97,0,18.93,5.73,23.88,17.18l-18.17,6.66c-.27-2.19-.89-3.92-1.87-5.19-.97-1.27-2.2-1.91-3.67-1.91-5.16,0-7.74,7.09-7.74,21.27,0,6.03.57,10.4,1.71,13.13,1.14,2.73,2.95,4.09,5.44,4.09.99,0,1.89-.24,2.7-.72.81-.48,1.49-1.15,2.05-2.02.55-.87.99-1.93,1.3-3.17.31-1.24.47-2.63.47-4.16h-6.93v-14.62Z"/>
          <path class="cls-1" d="M149.83,338.49h-18.75v-69.44h18.75v69.44Z"/>
          <path class="cls-1" d="M181.94,338.49h-18.75v-52.8h-10.34v-16.64h39.85v16.64h-10.75v52.8Z"/>
          <path class="cls-1" d="M240.38,338.49h-19.38l-1.39-8.82h-12.64l-1.53,8.82h-19.38l16.69-69.44h22.94l14.71,69.44ZM217.4,314.79l-1.21-8.1s-.09-.43-.18-1.21c-.06-.66-.38-3.27-.94-7.83-.06-.51-.13-1.21-.22-2.09-.09-.88-.21-2-.36-3.35l-.58-6.57c-.06.63-.14,1.33-.25,2.11-.11.78-.22,1.63-.34,2.56-.21,1.86-.36,3.15-.45,3.87s-.15,1.15-.18,1.3l-1.3,8.41-1.89,10.88h7.92Z"/>
          <path class="cls-1" d="M274.97,338.49h-32.83v-69.44h18.75v52.76h14.08v16.69Z"/>
          <path class="cls-1" d="M3.37,412.45v-21.81c3.69,5.04,7.68,7.56,11.96,7.56,1.62,0,2.94-.43,3.96-1.28,1.02-.85,1.53-1.93,1.53-3.22,0-1.86-1.11-3.67-3.33-5.44l-3.06-2.38c-2.04-1.53-3.78-3.05-5.22-4.56-1.44-1.51-2.61-3.07-3.51-4.68-.9-1.6-1.56-3.26-1.98-4.97-.42-1.71-.63-3.51-.63-5.4,0-3.24.75-6.63,2.25-10.16.75-1.65,1.62-3.16,2.61-4.52.99-1.36,2.13-2.57,3.42-3.62,3.54-3,7.81-4.5,12.82-4.5,4.47,0,8.96,1.19,13.49,3.55v21.23c-1.53-2.37-3.27-4.23-5.22-5.6-1.95-1.36-3.87-2.05-5.76-2.05-1.44,0-2.62.42-3.55,1.26-.96.81-1.44,1.78-1.44,2.92,0,1.86,1.27,3.7,3.82,5.53l2.97,2.2c3.96,2.85,6.79,5.77,8.5,8.77,1.74,3,2.61,6.51,2.61,10.52,0,6.84-2.08,12.47-6.25,16.91-4.17,4.44-9.45,6.66-15.83,6.66-4.41,0-9.13-.97-14.17-2.92Z"/>
          <path class="cls-1" d="M94.32,379.67c0,10.58-2.41,19.19-7.24,25.82-4.8,6.6-11.05,9.89-18.75,9.89-6.84,0-12.7-2.53-17.59-7.6-6.15-6.42-9.22-16.04-9.22-28.87s3.21-21.69,9.62-28.2c4.77-4.83,10.42-7.24,16.96-7.24,8.01,0,14.38,3.27,19.11,9.8,4.74,6.54,7.11,15.34,7.11,26.4ZM74.84,379.8c0-12.56-2.22-18.84-6.66-18.84-2.22,0-3.99,1.65-5.31,4.95-1.29,3.06-1.93,7.56-1.93,13.49s.61,10.38,1.82,13.6c1.21,3.22,2.9,4.83,5.06,4.83s3.93-1.59,5.13-4.77c1.26-3.18,1.89-7.6,1.89-13.27Z"/>
          <path class="cls-1" d="M129.63,414.16h-32.83v-69.44h18.75v52.76h14.08v16.69Z"/>
          <path class="cls-1" d="M159.95,344.72h18.75v49.11c0,4.11-.65,7.44-1.93,9.98-1.26,2.67-3.36,5.08-6.3,7.24-3.96,2.88-8.77,4.32-14.44,4.32-6.42,0-11.8-1.59-16.15-4.77-5.52-4.05-8.28-10.52-8.28-19.43v-46.46h18.75v44.8c0,3.03.37,5.17,1.1,6.43.73,1.26,1.97,1.89,3.71,1.89s3.04-.58,3.73-1.75c.69-1.23,1.03-3.4,1.03-6.52v-44.84Z"/>
          <path class="cls-1" d="M210.82,414.16h-18.75v-52.8h-10.34v-16.64h39.85v16.64h-10.75v52.8Z"/>
          <path class="cls-1" d="M243.34,414.16h-18.75v-69.44h18.75v69.44Z"/>
          <path class="cls-1" d="M298.57,379.67c0,10.58-2.41,19.19-7.24,25.82-4.8,6.6-11.05,9.89-18.75,9.89-6.84,0-12.7-2.53-17.59-7.6-6.15-6.42-9.22-16.04-9.22-28.87s3.21-21.69,9.62-28.2c4.77-4.83,10.42-7.24,16.96-7.24,8.01,0,14.38,3.27,19.11,9.8,4.74,6.54,7.11,15.34,7.11,26.4ZM279.1,379.8c0-12.56-2.22-18.84-6.66-18.84-2.22,0-3.99,1.65-5.31,4.95-1.29,3.06-1.93,7.56-1.93,13.49s.61,10.38,1.82,13.6c1.21,3.22,2.9,4.83,5.06,4.83s3.93-1.59,5.13-4.77c1.26-3.18,1.89-7.6,1.89-13.27Z"/>
          <path class="cls-1" d="M301.05,414.16v-69.44h17.9l9.4,24.38c.51,1.44,1.09,3.09,1.73,4.95.64,1.86,1.36,4,2.14,6.43l1.93,6.12c-.69-6.03-1.21-11.18-1.57-15.47-.36-4.29-.54-7.89-.54-10.79v-15.61h17.9v69.44h-17.9l-9.45-25.55c-.99-2.73-1.88-5.28-2.68-7.67-.79-2.38-1.49-4.65-2.09-6.81.39,4.89.67,9.15.85,12.77.18,3.63.27,6.81.27,9.54v17.72h-17.9Z"/>
        </g>
        <g>
          <path class="cls-1" d="M3.04,449.79c-.47-1.53-.7-4.03-.7-7.49s.23-5.98.7-7.49c.65-2.03,1.76-3.57,3.33-4.62,1.57-1.05,3.49-1.58,5.75-1.58s4.06.48,5.54,1.44,2.57,2.24,3.28,3.82c.13.23.09.42-.12.55l-2.34,1.13c-.23.13-.42.06-.55-.2-.65-1.2-1.44-2.08-2.36-2.65-.92-.57-2.07-.86-3.45-.86-2.96,0-4.88,1.31-5.73,3.94-.36,1.01-.55,3.19-.55,6.51s.18,5.5.55,6.51c.86,2.63,2.77,3.94,5.73,3.94,1.38,0,2.57-.33,3.59-.99,1.01-.66,1.72-1.6,2.11-2.83.34-1.12.51-2.51.51-4.17,0-.16-.08-.23-.23-.23h-5.15c-.26,0-.39-.13-.39-.39v-2.26c0-.26.13-.39.39-.39h8.46c.26,0,.39.13.39.39v1.99c0,2.44-.22,4.39-.66,5.85-.65,2-1.76,3.55-3.33,4.64-1.57,1.09-3.47,1.64-5.67,1.64s-4.18-.53-5.75-1.58c-1.57-1.05-2.69-2.59-3.33-4.62Z"/>
          <path class="cls-1" d="M27.88,455.56h-2.5c-.26,0-.39-.13-.39-.39v-17.9c0-.26.13-.39.39-.39h2.5c.26,0,.39.13.39.39v1.91h.04c.94-1.82,2.59-2.73,4.95-2.73,1.53,0,2.81.47,3.82,1.4.18.18.21.36.08.55l-1.44,1.91c-.16.21-.34.23-.55.08-.94-.6-1.9-.9-2.89-.9-2.68,0-4.02,1.82-4.02,5.46v10.22c0,.26-.13.39-.39.39Z"/>
          <path class="cls-1" d="M49.47,454.67c-1.29.88-2.84,1.33-4.66,1.33s-3.37-.44-4.66-1.33c-1.29-.88-2.19-2.12-2.71-3.71-.42-1.25-.62-2.83-.62-4.76s.21-3.47.62-4.72c.49-1.59,1.39-2.82,2.69-3.71,1.3-.88,2.86-1.33,4.68-1.33s3.38.44,4.68,1.33c1.3.88,2.2,2.12,2.69,3.71.42,1.25.62,2.82.62,4.72s-.21,3.51-.62,4.76c-.52,1.59-1.42,2.82-2.71,3.71ZM44.81,452.95c2.16,0,3.56-.98,4.21-2.93.29-.94.43-2.21.43-3.82s-.14-2.85-.43-3.78c-.65-1.95-2.05-2.92-4.21-2.92s-3.56.98-4.21,2.92c-.29.94-.43,2.2-.43,3.78s.14,2.89.43,3.82c.65,1.95,2.05,2.93,4.21,2.93Z"/>
          <path class="cls-1" d="M73.86,455.56h-2.22c-.23,0-.39-.13-.47-.39l-4.21-13.38h-.08l-4.25,13.38c-.08.26-.23.39-.47.39h-2.26c-.23,0-.39-.13-.47-.39l-5.85-17.9c-.08-.26.01-.39.27-.39h2.65c.23,0,.4.13.51.39l4.13,13.49h.08l4.21-13.49c.08-.26.23-.39.47-.39h2.03c.26,0,.43.13.51.39l4.25,13.49h.08l4.02-13.49c.05-.26.22-.39.51-.39h2.65c.26,0,.35.13.27.39l-5.89,17.9c-.08.26-.23.39-.47.39Z"/>
          <path class="cls-1" d="M96.99,455.56h-2.65c-.26,0-.39-.13-.39-.39v-10.45l-7.84-15.25c-.1-.29,0-.43.31-.43h2.77c.23,0,.43.13.58.39l5.93,11.35h.08l5.89-11.35c.1-.26.29-.39.55-.39h2.69c.31,0,.42.14.31.43l-7.84,15.25v10.45c0,.26-.13.39-.39.39Z"/>
          <path class="cls-1" d="M116.04,454.67c-1.29.88-2.84,1.33-4.66,1.33s-3.37-.44-4.66-1.33c-1.29-.88-2.19-2.12-2.71-3.71-.42-1.25-.62-2.83-.62-4.76s.21-3.47.62-4.72c.49-1.59,1.39-2.82,2.69-3.71,1.3-.88,2.86-1.33,4.68-1.33s3.38.44,4.68,1.33c1.3.88,2.2,2.12,2.69,3.71.42,1.25.62,2.82.62,4.72s-.21,3.51-.62,4.76c-.52,1.59-1.42,2.82-2.71,3.71ZM111.38,452.95c2.16,0,3.56-.98,4.21-2.93.29-.94.43-2.21.43-3.82s-.14-2.85-.43-3.78c-.65-1.95-2.05-2.92-4.21-2.92s-3.56.98-4.21,2.92c-.29.94-.43,2.2-.43,3.78s.14,2.89.43,3.82c.65,1.95,2.05,2.93,4.21,2.93Z"/>
          <path class="cls-1" d="M136.54,455.56h-2.5c-.26,0-.39-.13-.39-.39v-1.75h-.04c-1.07,1.72-2.77,2.57-5.11,2.57-2.03,0-3.61-.64-4.76-1.91-1.14-1.27-1.72-2.99-1.72-5.15v-11.66c0-.26.13-.39.39-.39h2.5c.26,0,.39.13.39.39v10.88c0,3.2,1.38,4.8,4.13,4.8,1.27,0,2.29-.42,3.06-1.25.77-.83,1.15-1.95,1.15-3.35v-11.08c0-.26.13-.39.39-.39h2.5c.26,0,.39.13.39.39v17.9c0,.26-.13.39-.39.39Z"/>
          <path class="cls-1" d="M143.87,455.56h-2.5c-.26,0-.39-.13-.39-.39v-17.9c0-.26.13-.39.39-.39h2.5c.26,0,.39.13.39.39v1.91h.04c.94-1.82,2.59-2.73,4.95-2.73,1.53,0,2.81.47,3.82,1.4.18.18.21.36.08.55l-1.44,1.91c-.16.21-.34.23-.55.08-.94-.6-1.9-.9-2.89-.9-2.68,0-4.02,1.82-4.02,5.46v10.22c0,.26-.13.39-.39.39Z"/>
          <path class="cls-1" d="M161.73,455.17v-25.74c0-.26.13-.39.39-.39h9.4c2.63,0,4.61.62,5.97,1.85,1.35,1.24,2.03,2.94,2.03,5.13,0,2.91-1.18,4.84-3.55,5.77v.08c1.04.29,1.97.97,2.79,2.05.82,1.08,1.23,2.44,1.23,4.08,0,2.47-.75,4.35-2.24,5.64-1.5,1.29-3.63,1.93-6.42,1.93h-9.2c-.26,0-.39-.13-.39-.39ZM165.43,440.51h6.01c1.43,0,2.56-.38,3.39-1.13.83-.75,1.25-1.75,1.25-3s-.41-2.29-1.23-3.04c-.82-.75-1.96-1.13-3.41-1.13h-6.01c-.16,0-.23.08-.23.23v7.84c0,.16.08.23.23.23ZM165.2,452.17c0,.16.08.23.23.23h6.2c1.56,0,2.76-.39,3.61-1.17.84-.78,1.27-1.85,1.27-3.2s-.42-2.39-1.27-3.18c-.85-.79-2.05-1.19-3.61-1.19h-6.2c-.16,0-.23.08-.23.23v8.27Z"/>
          <path class="cls-1" d="M197.1,455.56h-2.5c-.26,0-.39-.13-.39-.39v-1.75h-.04c-1.07,1.72-2.77,2.57-5.11,2.57-2.03,0-3.61-.64-4.76-1.91-1.14-1.27-1.72-2.99-1.72-5.15v-11.66c0-.26.13-.39.39-.39h2.5c.26,0,.39.13.39.39v10.88c0,3.2,1.38,4.8,4.13,4.8,1.27,0,2.29-.42,3.06-1.25.77-.83,1.15-1.95,1.15-3.35v-11.08c0-.26.13-.39.39-.39h2.5c.26,0,.39.13.39.39v17.9c0,.26-.13.39-.39.39Z"/>
          <path class="cls-1" d="M207.98,455.99c-2.99,0-5.56-.94-7.72-2.81-.18-.18-.18-.36,0-.55l1.6-1.72c.18-.18.36-.18.55,0,1.66,1.43,3.59,2.15,5.77,2.15,1.33,0,2.34-.26,3.04-.78.7-.52,1.05-1.21,1.05-2.07,0-.78-.25-1.37-.76-1.77-.51-.4-1.46-.68-2.87-.84l-1.99-.19c-3.72-.39-5.58-2.15-5.58-5.27,0-1.79.61-3.19,1.83-4.19,1.22-1,2.92-1.5,5.11-1.5,2.57,0,4.78.69,6.63,2.07.21.13.23.31.08.55l-1.33,1.68c-.16.18-.34.21-.55.08-1.56-1.01-3.24-1.52-5.03-1.52-1.14,0-2.02.23-2.63.7-.61.47-.92,1.09-.92,1.87s.27,1.33.82,1.74c.55.4,1.49.67,2.85.8l1.95.19c1.87.18,3.28.72,4.21,1.62s1.4,2.11,1.4,3.65c0,1.87-.66,3.36-1.97,4.47-1.31,1.11-3.17,1.66-5.56,1.66Z"/>
          <path class="cls-1" d="M221.28,432.67h-2.65c-.26,0-.39-.13-.39-.39v-2.85c0-.26.13-.39.39-.39h2.65c.26,0,.39.13.39.39v2.85c0,.26-.13.39-.39.39ZM221.2,455.56h-2.5c-.26,0-.39-.13-.39-.39v-17.9c0-.26.13-.39.39-.39h2.5c.26,0,.39.13.39.39v17.9c0,.26-.13.39-.39.39Z"/>
          <path class="cls-1" d="M240.27,455.56h-2.5c-.26,0-.39-.13-.39-.39v-10.92c0-3.17-1.39-4.76-4.17-4.76-1.27,0-2.31.42-3.1,1.25-.79.83-1.19,1.94-1.19,3.31v11.11c0,.26-.13.39-.39.39h-2.5c-.26,0-.39-.13-.39-.39v-17.9c0-.26.13-.39.39-.39h2.5c.26,0,.39.13.39.39v1.72h.04c1.04-1.69,2.78-2.53,5.23-2.53,2,0,3.58.64,4.74,1.91,1.16,1.27,1.74,2.98,1.74,5.11v11.7c0,.26-.13.39-.39.39Z"/>
          <path class="cls-1" d="M251.51,455.99c-1.9,0-3.49-.44-4.78-1.33-1.29-.88-2.19-2.13-2.71-3.74-.42-1.3-.62-2.87-.62-4.72,0-2.03.2-3.6.58-4.72.52-1.61,1.42-2.85,2.71-3.72,1.29-.87,2.83-1.31,4.62-1.31s3.33.44,4.62,1.33c1.29.88,2.19,2.12,2.71,3.71.39,1.2.58,2.98.58,5.34,0,.26-.14.39-.43.39h-11.82c-.16,0-.23.08-.23.23,0,.83.1,1.59.31,2.26.75,2.16,2.33,3.24,4.72,3.24,2,0,3.6-.69,4.8-2.07.21-.21.4-.23.58-.08l1.6,1.44c.18.16.19.34.04.55-1.69,2.13-4.12,3.2-7.29,3.2ZM246.98,444.61h8.66c.16,0,.23-.08.23-.23,0-.86-.09-1.56-.27-2.11-.65-1.95-2.08-2.93-4.29-2.93s-3.64.98-4.29,2.93c-.18.55-.27,1.25-.27,2.11,0,.16.08.23.23.23Z"/>
          <path class="cls-1" d="M268.59,455.99c-2.99,0-5.56-.94-7.72-2.81-.18-.18-.18-.36,0-.55l1.6-1.72c.18-.18.36-.18.55,0,1.66,1.43,3.59,2.15,5.77,2.15,1.33,0,2.34-.26,3.04-.78.7-.52,1.05-1.21,1.05-2.07,0-.78-.25-1.37-.76-1.77-.51-.4-1.46-.68-2.87-.84l-1.99-.19c-3.72-.39-5.58-2.15-5.58-5.27,0-1.79.61-3.19,1.83-4.19,1.22-1,2.92-1.5,5.11-1.5,2.57,0,4.78.69,6.63,2.07.21.13.23.31.08.55l-1.33,1.68c-.16.18-.34.21-.55.08-1.56-1.01-3.24-1.52-5.03-1.52-1.14,0-2.02.23-2.63.7-.61.47-.92,1.09-.92,1.87s.27,1.33.82,1.74c.55.4,1.49.67,2.85.8l1.95.19c1.87.18,3.28.72,4.21,1.62s1.4,2.11,1.4,3.65c0,1.87-.66,3.36-1.97,4.47-1.31,1.11-3.17,1.66-5.56,1.66Z"/>
          <path class="cls-1" d="M285.36,455.99c-2.99,0-5.56-.94-7.72-2.81-.18-.18-.18-.36,0-.55l1.6-1.72c.18-.18.36-.18.55,0,1.66,1.43,3.59,2.15,5.77,2.15,1.33,0,2.34-.26,3.04-.78.7-.52,1.05-1.21,1.05-2.07,0-.78-.25-1.37-.76-1.77-.51-.4-1.46-.68-2.87-.84l-1.99-.19c-3.72-.39-5.58-2.15-5.58-5.27,0-1.79.61-3.19,1.83-4.19,1.22-1,2.92-1.5,5.11-1.5,2.57,0,4.78.69,6.63,2.07.21.13.23.31.08.55l-1.33,1.68c-.16.18-.34.21-.55.08-1.56-1.01-3.24-1.52-5.03-1.52-1.14,0-2.02.23-2.63.7-.61.47-.92,1.09-.92,1.87s.27,1.33.82,1.74c.55.4,1.49.67,2.85.8l1.95.19c1.87.18,3.28.72,4.21,1.62s1.4,2.11,1.4,3.65c0,1.87-.66,3.36-1.97,4.47-1.31,1.11-3.17,1.66-5.56,1.66Z"/>
          <path class="cls-1" d="M296.24,455.17v-3.35c0-.26.13-.39.39-.39h2.96c.26,0,.39.13.39.39v3.35c0,.26-.13.39-.39.39h-2.96c-.26,0-.39-.13-.39-.39ZM297.29,448.39c-.26,0-.39-.13-.39-.39l-.62-18.56c0-.26.13-.39.39-.39h2.89c.26,0,.39.13.39.39l-.62,18.56c0,.26-.13.39-.39.39h-1.64Z"/>
        </g>
      </g>
    </g>
  </g>
</svg>