<?xml version="1.0" encoding="UTF-8"?>
<svg id="Layer_2" data-name="Layer 2" xmlns="http://www.w3.org/2000/svg" viewBox="0 0 633.68 214.49">
  <defs>
    <style>
      .cls-1 {
        fill: #242054;
      }
    </style>
  </defs>
  <g id="Page-02">
    <g>
      <path class="cls-1" d="M19.65,107.37c.07,20.98,6.83,39.58,20.09,55.79,4.53,5.54,9.68,10.5,15.52,14.69,1.55,1.11,1.66,1.08,2.42-.61,6.97-15.51,13.95-31.01,20.92-46.52,6.17-13.75,12.32-27.52,18.49-41.27,6.73-14.99,13.49-29.97,20.22-44.97,5.59-12.46,11.17-24.93,16.73-37.41,1.54-3.47,1.47-3.41,5.07-2.25,9.99,3.22,19.39,7.65,28.07,13.56,14.46,9.84,25.92,22.4,34.29,37.78,6.36,11.69,10.44,24.13,12.07,37.32,2.54,20.63-.4,40.44-9.29,59.32-5.51,11.72-12.84,22.16-22.14,31.15-17.26,16.69-37.82,26.66-61.69,29.7-11.57,1.48-23.06,1.02-34.48-1.29-2.16-.44-2.25-.53-1.2-2.7,4.3-8.94,8.25-18.04,12.33-27.07,5.86-12.96,11.68-25.94,17.5-38.92,6.82-15.2,13.63-30.41,20.41-45.63.52-1.17,1.19-1.34,2.27-.85,4.9,2.22,9.81,4.43,14.73,6.62,1.09.49,1.16,1.15.7,2.18-4.37,9.66-8.69,19.33-13.04,28.99-6.7,14.88-13.41,29.76-20.1,44.64-2.04,4.55-4.01,9.13-6.03,13.69-.4.91-.59,1.47.82,1.34,17.1-1.52,32.57-7.35,46.12-17.88,16.97-13.19,27.99-30.29,32.38-51.39,4.52-21.74,1.32-42.42-9.69-61.72-8.41-14.73-20.24-26.05-35.27-33.98-2.07-1.09-2.12-1.08-3.09,1.08-6.49,14.48-12.97,28.96-19.46,43.44-6.79,15.15-13.59,30.3-20.4,45.44-11.14,24.82-22.29,49.63-33.44,74.44-1.58,3.51-3.21,7.01-4.73,10.55-.54,1.27-1.13,1.58-2.45.99-17.39-7.77-31.9-19.15-43.27-34.46C9.27,155.29,2.59,137.46.56,117.85c-1.88-18.21.98-35.68,7.97-52.55,4.78-11.55,11.51-21.82,20.02-30.94C43.84,17.95,62.44,7.34,84.33,2.49,95.6-.01,106.98-.59,118.45.59c1.97.2,2.12.54,1.31,2.35-6.2,13.8-12.37,27.62-18.57,41.42-5.81,12.92-11.63,25.84-17.45,38.76-4.79,10.64-9.62,21.28-14.36,31.94-.68,1.53-1.39,1.72-2.84,1.04-4.67-2.18-9.39-4.27-14.12-6.31-1.25-.54-1.41-1.16-.87-2.35,4.21-9.29,8.36-18.61,12.54-27.91,8.32-18.5,16.66-37,24.97-55.51.33-.74,1.18-1.65.63-2.3-.54-.62-1.6.02-2.4.21-18.17,4.39-33.56,13.42-45.89,27.53-12.4,14.18-19.51,30.66-21.39,49.41-.28,2.83-.26,5.66-.35,8.5Z"/>
      <g>
        <g>
          <path class="cls-1" d="M242.15,73.26V19.86h12.45c7.13,0,12.67,1.91,16.64,5.74,5.21,5,7.82,12,7.82,21s-2.2,15.69-6.61,20.51c-3.76,4.1-9.36,6.16-16.81,6.16h-13.49ZM256.57,60.36c5.17-.25,7.75-4.7,7.75-13.35,0-4.27-.66-7.63-1.97-10.1-1.31-2.49-3.09-3.74-5.33-3.74h-.45v27.19Z"/>
          <path class="cls-1" d="M318.08,73.26h-14.91l-1.07-6.78h-9.72l-1.18,6.78h-14.91l12.83-53.4h17.64l11.31,53.4ZM300.41,55.03l-.93-6.23s-.07-.33-.14-.93c-.05-.51-.29-2.51-.73-6.02-.05-.39-.1-.93-.17-1.61-.07-.68-.16-1.54-.28-2.58l-.45-5.05c-.05.48-.11,1.03-.19,1.63-.08.6-.17,1.26-.26,1.97-.16,1.43-.28,2.42-.35,2.97-.07.55-.12.89-.14,1l-1,6.47-1.45,8.37h6.09Z"/>
          <path class="cls-1" d="M336.97,73.26h-14.7l-12.24-53.4h15.15l2.63,15.25c.99,5.83,1.79,12.36,2.39,19.58.25-3.2.56-6.2.93-8.99.37-2.79.81-5.51,1.31-8.16l3.42-17.67h15.67l-14.56,53.4Z"/>
          <path class="cls-1" d="M366.86,73.26h-14.42V19.86h14.42v53.4Z"/>
          <path class="cls-1" d="M370.08,73.26V19.86h12.45c7.13,0,12.67,1.91,16.64,5.74,5.21,5,7.82,12,7.82,21s-2.2,15.69-6.61,20.51c-3.76,4.1-9.36,6.16-16.81,6.16h-13.49ZM384.51,60.36c5.17-.25,7.75-4.7,7.75-13.35,0-4.27-.66-7.63-1.97-10.1-1.31-2.49-3.09-3.74-5.33-3.74h-.45v27.19Z"/>
          <path class="cls-1" d="M425.95,73.26V19.86h12.45c7.13,0,12.67,1.91,16.64,5.74,5.21,5,7.82,12,7.82,21s-2.2,15.69-6.61,20.51c-3.76,4.1-9.36,6.16-16.81,6.16h-13.49ZM440.37,60.36c5.17-.25,7.75-4.7,7.75-13.35,0-4.27-.66-7.63-1.97-10.1-1.31-2.49-3.09-3.74-5.33-3.74h-.45v27.19Z"/>
          <path class="cls-1" d="M479.19,73.26h-14.42V19.86h14.42v53.4Z"/>
          <path class="cls-1" d="M500.98,42.37h20.13v2.21c0,10.28-1.53,17.69-4.6,22.21-3.34,4.94-8.29,7.4-14.84,7.4s-11.48-2.42-15.15-7.26c-3.64-4.89-5.46-11.6-5.46-20.13s1.83-15.46,5.5-20.44,8.68-7.47,15.05-7.47c8.44,0,14.56,4.4,18.37,13.21l-13.97,5.12c-.21-1.68-.69-3.01-1.44-4-.75-.98-1.69-1.47-2.82-1.47-3.97,0-5.95,5.45-5.95,16.36,0,4.63.44,8,1.31,10.1s2.27,3.15,4.19,3.15c.76,0,1.45-.18,2.08-.55.62-.37,1.15-.89,1.57-1.56.43-.67.76-1.48,1-2.44.24-.96.36-2.02.36-3.2h-5.33v-11.24Z"/>
          <path class="cls-1" d="M537.44,73.26h-14.42V19.86h14.42v53.4Z"/>
          <path class="cls-1" d="M562.14,73.26h-14.42v-40.61h-7.96v-12.8h30.65v12.8h-8.27v40.61Z"/>
          <path class="cls-1" d="M607.08,73.26h-14.91l-1.07-6.78h-9.72l-1.18,6.78h-14.91l12.83-53.4h17.64l11.31,53.4ZM589.41,55.03l-.93-6.23s-.07-.33-.14-.93c-.05-.51-.29-2.51-.73-6.02-.05-.39-.1-.93-.17-1.61-.07-.68-.16-1.54-.28-2.58l-.45-5.05c-.05.48-.11,1.03-.19,1.63-.08.6-.17,1.26-.26,1.97-.16,1.43-.28,2.42-.35,2.97-.07.55-.12.89-.14,1l-1,6.47-1.45,8.37h6.09Z"/>
          <path class="cls-1" d="M633.68,73.26h-25.25V19.86h14.42v40.57h10.83v12.83Z"/>
          <path class="cls-1" d="M241.01,138.37v-16.78c2.84,3.87,5.9,5.81,9.2,5.81,1.25,0,2.26-.33,3.04-.99.78-.66,1.18-1.48,1.18-2.47,0-1.43-.85-2.82-2.56-4.19l-2.35-1.83c-1.57-1.18-2.91-2.35-4.01-3.51-1.11-1.16-2.01-2.36-2.7-3.6-.69-1.23-1.2-2.51-1.52-3.82-.32-1.31-.48-2.7-.48-4.15,0-2.49.58-5.1,1.73-7.82.58-1.27,1.25-2.43,2.01-3.48.76-1.05,1.64-1.98,2.63-2.78,2.72-2.31,6.01-3.46,9.86-3.46,3.44,0,6.89.91,10.38,2.73v16.33c-1.18-1.82-2.51-3.26-4.01-4.31-1.5-1.05-2.97-1.57-4.43-1.57-1.11,0-2.02.32-2.73.97-.74.62-1.11,1.37-1.11,2.25,0,1.43.98,2.85,2.94,4.25l2.28,1.69c3.04,2.19,5.22,4.44,6.54,6.75,1.34,2.31,2.01,5,2.01,8.09,0,5.26-1.6,9.59-4.81,13.01-3.21,3.41-7.26,5.12-12.18,5.12-3.39,0-7.02-.75-10.9-2.25Z"/>
          <path class="cls-1" d="M310.95,113.15c0,8.14-1.86,14.76-5.57,19.85-3.69,5.07-8.5,7.61-14.42,7.61-5.26,0-9.77-1.95-13.52-5.85-4.73-4.93-7.09-12.34-7.09-22.21s2.47-16.68,7.4-21.69c3.67-3.71,8.01-5.57,13.04-5.57,6.16,0,11.06,2.51,14.7,7.54,3.64,5.03,5.46,11.79,5.46,20.3ZM295.97,113.25c0-9.66-1.71-14.49-5.12-14.49-1.71,0-3.07,1.27-4.08,3.8-.99,2.35-1.49,5.81-1.49,10.38s.47,7.98,1.4,10.46c.93,2.48,2.23,3.72,3.89,3.72s3.02-1.22,3.94-3.67c.97-2.44,1.45-5.85,1.45-10.2Z"/>
          <path class="cls-1" d="M338.11,139.68h-25.25v-53.4h14.42v40.57h10.83v12.83Z"/>
          <path class="cls-1" d="M361.42,86.28h14.42v37.77c0,3.16-.5,5.72-1.49,7.68-.97,2.05-2.58,3.91-4.84,5.57-3.04,2.21-6.74,3.32-11.1,3.32-4.93,0-9.07-1.22-12.42-3.67-4.24-3.11-6.36-8.09-6.36-14.94v-35.73h14.42v34.45c0,2.33.28,3.98.85,4.95.56.97,1.52,1.45,2.85,1.45s2.34-.45,2.87-1.35c.53-.95.8-2.62.8-5.02v-34.48Z"/>
          <path class="cls-1" d="M400.55,139.68h-14.42v-40.61h-7.96v-12.8h30.65v12.8h-8.27v40.61Z"/>
          <path class="cls-1" d="M425.55,139.68h-14.42v-53.4h14.42v53.4Z"/>
          <path class="cls-1" d="M468.03,113.15c0,8.14-1.86,14.76-5.57,19.85-3.69,5.07-8.5,7.61-14.42,7.61-5.26,0-9.77-1.95-13.52-5.85-4.73-4.93-7.09-12.34-7.09-22.21s2.47-16.68,7.4-21.69c3.67-3.71,8.01-5.57,13.04-5.57,6.16,0,11.06,2.51,14.7,7.54,3.64,5.03,5.46,11.79,5.46,20.3ZM453.06,113.25c0-9.66-1.71-14.49-5.12-14.49-1.71,0-3.07,1.27-4.08,3.8-.99,2.35-1.49,5.81-1.49,10.38s.47,7.98,1.4,10.46c.93,2.48,2.23,3.72,3.89,3.72s3.02-1.22,3.94-3.67c.97-2.44,1.45-5.85,1.45-10.2Z"/>
          <path class="cls-1" d="M469.94,139.68v-53.4h13.77l7.23,18.75c.39,1.11.84,2.38,1.33,3.8.5,1.43,1.04,3.08,1.64,4.95l1.49,4.7c-.53-4.64-.93-8.6-1.21-11.9-.28-3.3-.42-6.06-.42-8.3v-12h13.77v53.4h-13.77l-7.26-19.65c-.76-2.1-1.45-4.06-2.06-5.9-.61-1.83-1.15-3.58-1.61-5.24.3,3.76.52,7.03.66,9.82.14,2.79.21,5.23.21,7.33v13.63h-13.77Z"/>
        </g>
        <g>
          <path class="cls-1" d="M242.39,188.79c-.61-2-.92-5.26-.92-9.77s.31-7.8.92-9.77c.85-2.65,2.3-4.66,4.35-6.03,2.05-1.37,4.56-2.06,7.51-2.06s5.29.63,7.23,1.88c1.93,1.26,3.36,2.92,4.28,4.99.17.31.12.54-.15.71l-3.05,1.48c-.31.17-.54.08-.71-.25-.85-1.56-1.88-2.71-3.08-3.46-1.2-.75-2.71-1.12-4.5-1.12-3.87,0-6.36,1.71-7.48,5.14-.48,1.32-.71,4.16-.71,8.5s.24,7.18.71,8.5c1.12,3.43,3.61,5.14,7.48,5.14,1.8,0,3.36-.43,4.68-1.3s2.24-2.09,2.75-3.69c.44-1.46.66-3.27.66-5.45,0-.2-.1-.31-.31-.31h-6.72c-.34,0-.51-.17-.51-.51v-2.95c0-.34.17-.51.51-.51h11.04c.34,0,.51.17.51.51v2.6c0,3.19-.29,5.73-.87,7.63-.85,2.61-2.3,4.63-4.35,6.06-2.05,1.42-4.52,2.14-7.41,2.14s-5.45-.69-7.51-2.06c-2.05-1.37-3.5-3.38-4.35-6.03Z"/>
          <path class="cls-1" d="M274.81,196.32h-3.26c-.34,0-.51-.17-.51-.51v-23.36c0-.34.17-.51.51-.51h3.26c.34,0,.51.17.51.51v2.49h.05c1.22-2.37,3.38-3.56,6.46-3.56,2,0,3.66.61,4.99,1.83.24.24.27.48.1.71l-1.88,2.49c-.2.27-.44.31-.71.1-1.22-.78-2.48-1.17-3.77-1.17-3.5,0-5.24,2.38-5.24,7.13v13.33c0,.34-.17.51-.51.51Z"/>
          <path class="cls-1" d="M302.98,195.15c-1.68,1.15-3.71,1.73-6.08,1.73s-4.4-.58-6.08-1.73c-1.68-1.15-2.86-2.77-3.54-4.84-.54-1.63-.81-3.7-.81-6.21s.27-4.53.81-6.16c.64-2.07,1.81-3.68,3.51-4.84,1.7-1.15,3.73-1.73,6.11-1.73s4.41.58,6.11,1.73c1.7,1.15,2.87,2.77,3.51,4.84.54,1.63.81,3.68.81,6.16s-.27,4.58-.81,6.21c-.68,2.07-1.86,3.68-3.54,4.84ZM296.9,192.91c2.82,0,4.65-1.27,5.5-3.82.37-1.22.56-2.88.56-4.99s-.19-3.72-.56-4.94c-.85-2.54-2.68-3.82-5.5-3.82s-4.65,1.27-5.5,3.82c-.37,1.22-.56,2.87-.56,4.94s.19,3.77.56,4.99c.85,2.54,2.68,3.82,5.5,3.82Z"/>
          <path class="cls-1" d="M334.82,196.32h-2.9c-.31,0-.51-.17-.61-.51l-5.5-17.46h-.1l-5.55,17.46c-.1.34-.31.51-.61.51h-2.95c-.31,0-.51-.17-.61-.51l-7.63-23.36c-.1-.34.02-.51.36-.51h3.46c.31,0,.53.17.66.51l5.4,17.61h.1l5.5-17.61c.1-.34.31-.51.61-.51h2.65c.34,0,.56.17.66.51l5.55,17.61h.1l5.24-17.61c.07-.34.29-.51.66-.51h3.46c.34,0,.46.17.36.51l-7.69,23.36c-.1.34-.31.51-.61.51Z"/>
          <path class="cls-1" d="M365,196.32h-3.46c-.34,0-.51-.17-.51-.51v-13.64l-10.23-19.9c-.14-.37,0-.56.41-.56h3.61c.31,0,.56.17.76.51l7.74,14.81h.1l7.69-14.81c.14-.34.37-.51.71-.51h3.51c.41,0,.54.19.41.56l-10.23,19.9v13.64c0,.34-.17.51-.51.51Z"/>
          <path class="cls-1" d="M389.86,195.15c-1.68,1.15-3.71,1.73-6.08,1.73s-4.4-.58-6.08-1.73c-1.68-1.15-2.86-2.77-3.54-4.84-.54-1.63-.81-3.7-.81-6.21s.27-4.53.81-6.16c.64-2.07,1.81-3.68,3.51-4.84,1.7-1.15,3.73-1.73,6.11-1.73s4.41.58,6.11,1.73c1.7,1.15,2.87,2.77,3.51,4.84.54,1.63.81,3.68.81,6.16s-.27,4.58-.81,6.21c-.68,2.07-1.86,3.68-3.54,4.84ZM383.78,192.91c2.82,0,4.65-1.27,5.5-3.82.37-1.22.56-2.88.56-4.99s-.19-3.72-.56-4.94c-.85-2.54-2.68-3.82-5.5-3.82s-4.65,1.27-5.5,3.82c-.37,1.22-.56,2.87-.56,4.94s.19,3.77.56,4.99c.85,2.54,2.68,3.82,5.5,3.82Z"/>
          <path class="cls-1" d="M416.61,196.32h-3.26c-.34,0-.51-.17-.51-.51v-2.29h-.05c-1.39,2.24-3.61,3.36-6.67,3.36-2.65,0-4.72-.83-6.21-2.49-1.49-1.66-2.24-3.9-2.24-6.72v-15.22c0-.34.17-.51.51-.51h3.26c.34,0,.51.17.51.51v14.2c0,4.17,1.8,6.26,5.4,6.26,1.66,0,2.99-.54,4-1.63,1-1.09,1.5-2.54,1.5-4.38v-14.45c0-.34.17-.51.51-.51h3.26c.34,0,.51.17.51.51v23.36c0,.34-.17.51-.51.51Z"/>
          <path class="cls-1" d="M426.17,196.32h-3.26c-.34,0-.51-.17-.51-.51v-23.36c0-.34.17-.51.51-.51h3.26c.34,0,.51.17.51.51v2.49h.05c1.22-2.37,3.38-3.56,6.46-3.56,2,0,3.66.61,4.99,1.83.24.24.27.48.1.71l-1.88,2.49c-.2.27-.44.31-.71.1-1.22-.78-2.48-1.17-3.77-1.17-3.5,0-5.24,2.38-5.24,7.13v13.33c0,.34-.17.51-.51.51Z"/>
          <path class="cls-1" d="M449.48,195.81v-33.59c0-.34.17-.51.51-.51h12.27c3.43,0,6.02.81,7.79,2.42,1.76,1.61,2.65,3.84,2.65,6.69,0,3.8-1.54,6.31-4.63,7.53v.1c1.36.37,2.57,1.26,3.64,2.67,1.07,1.41,1.6,3.18,1.6,5.32,0,3.22-.98,5.68-2.93,7.35-1.95,1.68-4.74,2.52-8.37,2.52h-12.01c-.34,0-.51-.17-.51-.51ZM454.32,176.67h7.84c1.87,0,3.34-.49,4.43-1.48,1.09-.98,1.63-2.29,1.63-3.92s-.53-2.99-1.6-3.97c-1.07-.98-2.55-1.48-4.45-1.48h-7.84c-.2,0-.31.1-.31.31v10.23c0,.2.1.31.31.31ZM454.01,191.89c0,.2.1.31.31.31h8.09c2.04,0,3.6-.51,4.71-1.53,1.1-1.02,1.65-2.41,1.65-4.17s-.55-3.11-1.65-4.15c-1.1-1.03-2.67-1.55-4.71-1.55h-8.09c-.2,0-.31.1-.31.31v10.79Z"/>
          <path class="cls-1" d="M495.64,196.32h-3.26c-.34,0-.51-.17-.51-.51v-2.29h-.05c-1.39,2.24-3.61,3.36-6.67,3.36-2.65,0-4.72-.83-6.21-2.49-1.49-1.66-2.24-3.9-2.24-6.72v-15.22c0-.34.17-.51.51-.51h3.26c.34,0,.51.17.51.51v14.2c0,4.17,1.8,6.26,5.4,6.26,1.66,0,2.99-.54,4-1.63,1-1.09,1.5-2.54,1.5-4.38v-14.45c0-.34.17-.51.51-.51h3.26c.34,0,.51.17.51.51v23.36c0,.34-.17.51-.51.51Z"/>
          <path class="cls-1" d="M509.84,196.88c-3.9,0-7.26-1.22-10.08-3.66-.24-.24-.24-.48,0-.71l2.09-2.24c.24-.24.48-.24.71,0,2.17,1.87,4.68,2.8,7.53,2.8,1.73,0,3.05-.34,3.97-1.02.92-.68,1.37-1.58,1.37-2.7,0-1.02-.33-1.79-.99-2.32-.66-.53-1.91-.89-3.74-1.09l-2.6-.25c-4.85-.51-7.28-2.8-7.28-6.87,0-2.34.8-4.17,2.39-5.47,1.59-1.31,3.82-1.96,6.67-1.96,3.36,0,6.24.9,8.65,2.7.27.17.31.41.1.71l-1.73,2.19c-.2.24-.44.27-.71.1-2.04-1.32-4.22-1.98-6.57-1.98-1.49,0-2.64.31-3.44.92-.8.61-1.2,1.42-1.2,2.44s.36,1.74,1.07,2.27c.71.53,1.95.87,3.72,1.04l2.54.25c2.44.24,4.28.94,5.5,2.11,1.22,1.17,1.83,2.76,1.83,4.76,0,2.44-.86,4.39-2.57,5.83-1.71,1.44-4.13,2.16-7.25,2.16Z"/>
          <path class="cls-1" d="M527.2,166.44h-3.46c-.34,0-.51-.17-.51-.51v-3.72c0-.34.17-.51.51-.51h3.46c.34,0,.51.17.51.51v3.72c0,.34-.17.51-.51.51ZM527.1,196.32h-3.26c-.34,0-.51-.17-.51-.51v-23.36c0-.34.17-.51.51-.51h3.26c.34,0,.51.17.51.51v23.36c0,.34-.17.51-.51.51Z"/>
          <path class="cls-1" d="M551.99,196.32h-3.26c-.34,0-.51-.17-.51-.51v-14.25c0-4.14-1.82-6.21-5.45-6.21-1.66,0-3.01.54-4.05,1.63-1.04,1.09-1.55,2.53-1.55,4.33v14.51c0,.34-.17.51-.51.51h-3.26c-.34,0-.51-.17-.51-.51v-23.36c0-.34.17-.51.51-.51h3.26c.34,0,.51.17.51.51v2.24h.05c1.36-2.21,3.63-3.31,6.82-3.31,2.61,0,4.67.83,6.18,2.49,1.51,1.66,2.26,3.89,2.26,6.67v15.27c0,.34-.17.51-.51.51Z"/>
          <path class="cls-1" d="M566.64,196.88c-2.48,0-4.56-.58-6.23-1.73-1.68-1.15-2.86-2.78-3.54-4.89-.54-1.7-.81-3.75-.81-6.16,0-2.65.25-4.7.76-6.16.68-2.1,1.86-3.72,3.54-4.86,1.68-1.14,3.69-1.71,6.03-1.71s4.35.58,6.03,1.73c1.68,1.15,2.86,2.77,3.54,4.84.51,1.56.76,3.89.76,6.97,0,.34-.19.51-.56.51h-15.42c-.2,0-.31.1-.31.31,0,1.09.14,2.07.41,2.95.98,2.82,3.04,4.22,6.16,4.22,2.61,0,4.7-.9,6.26-2.7.27-.27.53-.31.76-.1l2.09,1.88c.24.2.25.44.05.71-2.21,2.78-5.38,4.17-9.52,4.17ZM560.74,182.02h11.3c.2,0,.31-.1.31-.31,0-1.12-.12-2.04-.36-2.75-.85-2.54-2.71-3.82-5.6-3.82s-4.75,1.27-5.6,3.82c-.24.71-.36,1.63-.36,2.75,0,.2.1.31.31.31Z"/>
          <path class="cls-1" d="M588.94,196.88c-3.9,0-7.26-1.22-10.08-3.66-.24-.24-.24-.48,0-.71l2.09-2.24c.24-.24.48-.24.71,0,2.17,1.87,4.68,2.8,7.53,2.8,1.73,0,3.05-.34,3.97-1.02.92-.68,1.37-1.58,1.37-2.7,0-1.02-.33-1.79-.99-2.32-.66-.53-1.91-.89-3.74-1.09l-2.6-.25c-4.85-.51-7.28-2.8-7.28-6.87,0-2.34.8-4.17,2.39-5.47,1.59-1.31,3.82-1.96,6.67-1.96,3.36,0,6.24.9,8.65,2.7.27.17.31.41.1.71l-1.73,2.19c-.2.24-.44.27-.71.1-2.04-1.32-4.22-1.98-6.57-1.98-1.49,0-2.64.31-3.44.92-.8.61-1.2,1.42-1.2,2.44s.36,1.74,1.07,2.27c.71.53,1.95.87,3.72,1.04l2.54.25c2.44.24,4.28.94,5.5,2.11,1.22,1.17,1.83,2.76,1.83,4.76,0,2.44-.86,4.39-2.57,5.83-1.71,1.44-4.13,2.16-7.25,2.16Z"/>
          <path class="cls-1" d="M610.82,196.88c-3.9,0-7.26-1.22-10.08-3.66-.24-.24-.24-.48,0-.71l2.09-2.24c.24-.24.48-.24.71,0,2.17,1.87,4.68,2.8,7.53,2.8,1.73,0,3.05-.34,3.97-1.02.92-.68,1.37-1.58,1.37-2.7,0-1.02-.33-1.79-.99-2.32-.66-.53-1.91-.89-3.74-1.09l-2.6-.25c-4.85-.51-7.28-2.8-7.28-6.87,0-2.34.8-4.17,2.39-5.47,1.59-1.31,3.82-1.96,6.67-1.96,3.36,0,6.24.9,8.65,2.7.27.17.31.41.1.71l-1.73,2.19c-.2.24-.44.27-.71.1-2.04-1.32-4.22-1.98-6.57-1.98-1.49,0-2.64.31-3.44.92-.8.61-1.2,1.42-1.2,2.44s.36,1.74,1.07,2.27c.71.53,1.95.87,3.72,1.04l2.54.25c2.44.24,4.28.94,5.5,2.11,1.22,1.17,1.83,2.76,1.83,4.76,0,2.44-.86,4.39-2.57,5.83-1.71,1.44-4.13,2.16-7.25,2.16Z"/>
        </g>
      </g>
    </g>
  </g>
</svg>